<?xml version="1.0" encoding="UTF-8"?>
<svg version="1.1" xmlns="http://www.w3.org/2000/svg" width="245" height="206">
<path d="M0 0 C1.77697266 -0.02513672 1.77697266 -0.02513672 3.58984375 -0.05078125 C9.98912536 0.61865991 13.88672734 3.58728357 18.0625 8.3125 C21.21080694 12.68746648 23.42801658 17.05320632 25.48828125 21.9921875 C25.9543 23.08782516 25.9543 23.08782516 26.42973328 24.20559692 C27.41725407 26.53050497 28.39640368 28.85882338 29.375 31.1875 C30.34084187 33.4705315 31.30842823 35.75281711 32.27633667 38.03497314 C32.91582979 39.54386124 33.55412236 41.05325874 34.19119263 42.56317139 C35.79980844 46.36936753 37.43026152 50.16389295 39.10302734 53.94238281 C39.59188667 55.04744675 39.59188667 55.04744675 40.09062195 56.17483521 C40.71198069 57.57465204 41.33652097 58.97306222 41.9646759 60.36984253 C44.0625 65.09412572 44.0625 65.09412572 44.0625 67.3125 C43.11375 67.580625 42.165 67.84875 41.1875 68.125 C36.08648872 70.25815017 33.1122995 74.55270759 29.5625 78.6328125 C26.30335711 82.12620628 23.34141252 84.21057806 19.0625 86.3125 C16.0625 85.3125 16.0625 85.3125 15.1010437 83.75634766 C14.82648346 83.08651855 14.55192322 82.41668945 14.26904297 81.7265625 C13.95216522 80.96907715 13.63528748 80.2115918 13.30880737 79.43115234 C12.97744781 78.60824707 12.64608826 77.7853418 12.3046875 76.9375 C11.9561673 76.09783691 11.60764709 75.25817383 11.24856567 74.39306641 C10.13450037 71.7036912 9.03554789 69.00844982 7.9375 66.3125 C6.82942513 63.61783069 5.71831244 60.92444749 4.60501099 58.23193359 C3.91241062 56.55409276 3.22342119 54.87475618 2.53829956 53.19384766 C1.24006313 49.4841299 1.24006313 49.4841299 -0.9375 46.3125 C-1.15634354 46.83788361 -1.37518707 47.36326721 -1.60066223 47.90457153 C-3.88561234 53.38894057 -6.17352448 58.87206709 -8.46313477 64.35449219 C-9.31642948 66.39877329 -10.16897688 68.4433665 -11.02075195 70.48828125 C-12.24753055 73.43312282 -13.47702156 76.37681929 -14.70703125 79.3203125 C-15.08527542 80.2299173 -15.46351959 81.13952209 -15.85322571 82.07669067 C-20.00636674 91.99909931 -20.00636674 91.99909931 -21.9375 95.3125 C-24.94140625 96.37890625 -24.94140625 96.37890625 -28.5 96.875 C-40.77942518 99.08352971 -50.31038484 104.69729251 -57.828125 114.87109375 C-62.55862874 122.41463977 -64.29760481 129.42460113 -64.3125 138.25 C-64.33699219 139.00990234 -64.36148438 139.76980469 -64.38671875 140.55273438 C-64.4167111 146.40624053 -62.84419846 150.30264073 -59.9375 155.3125 C-59.26310224 156.64193969 -58.59432755 157.97429232 -57.9375 159.3125 C-58.576875 159.93125 -59.21625 160.55 -59.875 161.1875 C-62.72199076 164.12076321 -63.09193396 165.70634929 -63.125 169.6875 C-63.13917969 170.45835937 -63.15335938 171.22921875 -63.16796875 172.0234375 C-62.90855568 174.59998088 -62.33090154 176.13675673 -60.9375 178.3125 C-59.9475 178.9725 -58.9575 179.6325 -57.9375 180.3125 C-63.75639919 199.70883064 -63.75639919 199.70883064 -71.9375 205.3125 C-77.06567123 207.02189041 -83.03140581 207.52511484 -88.109375 205.40625 C-92.09331193 202.75029204 -94.48006828 199.94198898 -95.9375 195.3125 C-97.69806905 185.43400683 -93.49094253 177.47271474 -89.44677734 168.76489258 C-87.78670722 165.18974769 -86.17245051 161.59444522 -84.55429077 158.00018311 C-83.68961231 156.08087996 -82.82256312 154.16264329 -81.95327759 152.24542236 C-77.40472906 142.19908472 -73.07535412 132.06223848 -68.75796509 121.91491699 C-61.43151187 104.70150243 -54.00169644 87.53651582 -46.45205688 70.41989136 C-42.47875297 61.41115466 -38.52706616 52.39485594 -34.66015625 43.33984375 C-34.31660095 42.53546875 -33.97304565 41.73109375 -33.61907959 40.90234375 C-32.00507106 37.11964682 -30.39601628 33.3349243 -28.79345703 29.54736328 C-18.65785779 5.65544721 -18.65785779 5.65544721 -9.65234375 1.17578125 C-6.33684461 0.12150023 -3.47674816 0.01132491 0 0 Z " fill="#6CB13F" transform="translate(95.9375,-0.3125)"/>
<path d="M0 0 C2.25 0.25 2.25 0.25 4 1 C11.43509068 25.8339577 17.61626731 52.80213281 5 77 C-3.45238082 89.4724156 -16.42197589 92.63032716 -30.3828125 95.7578125 C-44.00286775 98.04392106 -58.2352612 97.17364542 -72 97 C-72.33 95.68 -72.66 94.36 -73 93 C-72.23969482 92.73372803 -71.47938965 92.46745605 -70.69604492 92.19311523 C-67.18801574 90.95541031 -63.68789622 89.69662222 -60.1875 88.4375 C-58.99189453 88.01919922 -57.79628906 87.60089844 -56.56445312 87.16992188 C-39.04501026 80.82091397 -21.49957097 68.42698966 -12.9375 51.375 C-12.27465144 49.92432133 -11.62186054 48.46871586 -11 47 C-11.73863281 47.83402344 -12.47726563 48.66804688 -13.23828125 49.52734375 C-31.57766658 69.98949844 -51.04759191 78.99200981 -77.3125 85.375 C-77.99940918 85.54290039 -78.68631836 85.71080078 -79.39404297 85.88378906 C-88.78135186 88.03916919 -88.78135186 88.03916919 -92.9765625 86.07421875 C-98.97816989 81.0254732 -101.32690817 74.91981558 -102.37890625 67.23046875 C-102.84294416 56.76716226 -98.98085018 47.67386436 -92 40 C-81.49442155 28.60320282 -66.19090736 27.32740787 -51.5625 26.625 C-31.98966696 25.40803629 -17.59021033 17.54871351 -4 4 C-2.96552734 2.81470703 -2.96552734 2.81470703 -1.91015625 1.60546875 C-1.27980469 1.07566406 -0.64945312 0.54585938 0 0 Z " fill="#6CB13F" transform="translate(139,73)"/>
<path d="M0 0 C4.46876455 3.07848225 8.07974831 6.73924494 9.8125 11.9375 C9.91098179 13.67015344 9.95176561 15.40633744 9.95967102 17.14176941 C9.96682632 18.219758 9.97398163 19.29774658 9.98135376 20.40840149 C9.98404266 21.59129257 9.98673157 22.77418365 9.98950195 23.99291992 C9.99935875 25.86161743 9.99935875 25.86161743 10.00941467 27.76806641 C10.0291664 31.90136962 10.040817 36.03463401 10.05078125 40.16796875 C10.05482978 41.59268017 10.05894673 43.0173914 10.06313133 44.44210243 C10.08218104 51.13766218 10.09641121 57.83321093 10.1047433 64.52879256 C10.1145083 72.2477312 10.14080915 79.96638251 10.18124419 87.68521994 C10.21145094 93.65733299 10.22621657 99.6293639 10.22952431 105.60155183 C10.23187008 109.16552473 10.24076781 112.72919061 10.26598549 116.29308128 C10.29369762 120.27384908 10.2894211 124.25424211 10.2824707 128.23510742 C10.29528076 129.40787735 10.30809082 130.58064728 10.32128906 131.78895569 C10.2733232 139.33277933 9.44587011 145.1296012 4.0234375 150.8125 C-1.3498362 154.1050592 -5.94070367 154.89289238 -12.1875 153.9375 C-16.8979586 152.24884503 -20.02177437 149.80672022 -23.1875 145.9375 C-25.62060293 139.62878832 -25.47682819 133.49299861 -25.4621582 126.79516602 C-25.46726913 125.58779785 -25.47238007 124.38042969 -25.47764587 123.13647461 C-25.48912829 119.84095518 -25.49162127 116.54559249 -25.48908257 113.25005841 C-25.48800891 110.4917376 -25.49290627 107.7334397 -25.497688 104.97512382 C-25.50876242 98.46443667 -25.50923211 91.95380723 -25.50317383 85.44311523 C-25.49713387 78.74191121 -25.50945021 72.04091714 -25.5307439 65.33974892 C-25.5483949 59.57136407 -25.55435579 53.80304585 -25.55110615 48.03463501 C-25.54929887 44.59598985 -25.5518738 41.15749451 -25.56582069 37.71887398 C-25.5781756 33.88216151 -25.57139851 30.0459334 -25.55981445 26.20922852 C-25.56745819 25.08014572 -25.57510193 23.95106293 -25.58297729 22.7877655 C-25.53636801 15.79302712 -25.14281643 9.47716309 -20.46875 3.87890625 C-19.8809375 3.42386719 -19.293125 2.96882813 -18.6875 2.5 C-17.80578125 1.79037109 -17.80578125 1.79037109 -16.90625 1.06640625 C-11.87217839 -2.24006351 -5.50284733 -1.83428244 0 0 Z " fill="#6CB13F" transform="translate(235.1875,51.0625)"/>
<path d="M0 0 C2.7635539 3.32521422 4.33417405 6.77326789 6.01171875 10.74609375 C6.29730148 11.41730759 6.58288422 12.08852142 6.87712097 12.78007507 C7.81917802 14.99702666 8.7535539 17.21712056 9.6875 19.4375 C11.02514071 22.60119545 12.36586944 25.76357712 13.70703125 28.92578125 C14.0534668 29.74403381 14.39990234 30.56228638 14.75683594 31.40533447 C17.28903568 37.37088039 19.88668442 43.30526947 22.51171875 49.23046875 C23.61000949 51.72184007 24.70749167 54.21356629 25.80484009 56.70535278 C26.51302179 58.30656197 27.225346 59.90594601 27.94198608 61.50338745 C28.94914651 63.75006635 29.94075918 66.00306103 30.9296875 68.2578125 C31.22691208 68.90965012 31.52413666 69.56148773 31.83036804 70.233078 C34.4777612 76.34044022 35.81528619 82.28237936 33.875 88.75 C31.14418549 93.48341181 28.08265537 96.89459349 23 99 C17.47693892 99.79561684 12.31162146 99.61062678 7.63697815 96.35896301 C2.56309166 92.14679679 -0.15939832 85.98727383 -2.62109375 80.01953125 C-2.92950699 79.28425705 -3.23792023 78.54898285 -3.55567932 77.79142761 C-4.19792628 76.25130543 -4.83548927 74.70922216 -5.46850586 73.1652832 C-6.44228852 70.80087315 -7.44199058 68.44854057 -8.44335938 66.09570312 C-9.06670413 64.591808 -9.68850511 63.08727187 -10.30859375 61.58203125 C-10.60946396 60.88092728 -10.91033417 60.1798233 -11.22032166 59.45747375 C-13.18343124 54.57159773 -13.18343124 54.57159773 -12.25585938 51.68115234 C-11.84142578 51.12637207 -11.42699219 50.5715918 -11 50 C-10.53722656 49.18144531 -10.07445312 48.36289063 -9.59765625 47.51953125 C-9.09105469 46.62621094 -8.58445313 45.73289063 -8.0625 44.8125 C-3.35293475 36.19744161 -1.05368829 27.99800324 -0.68359375 18.1640625 C-0.64169922 17.10058594 -0.59980469 16.03710938 -0.55664062 14.94140625 C-0.51732422 13.84699219 -0.47800781 12.75257812 -0.4375 11.625 C-0.39431641 10.50738281 -0.35113281 9.38976562 -0.30664062 8.23828125 C-0.20102589 5.49229801 -0.0989203 2.74623119 0 0 Z " fill="#6CB13F" transform="translate(157,107)"/>
<path d="M0 0 C4.4564868 2.52270555 7.07062005 5.68374209 8.8125 10.5 C9.76128417 16.34383878 9.63624725 22.00312899 6.1953125 26.99609375 C2.81073194 30.67706414 -0.72662332 33.10124683 -5.71875 33.91015625 C-10.89829747 34.08956829 -14.84692777 33.52830621 -19.1875 30.5 C-23.34997736 26.24292089 -26.1308076 22.43303524 -26.21875 16.33203125 C-25.86597255 11.06682776 -24.7061504 7.58924235 -21.1875 3.5 C-14.53068916 -1.52657145 -7.84820766 -3.37413473 0 0 Z " fill="#6CB13F" transform="translate(236.1875,5.5)"/>
<path d="M0 0 C2.875 0.875 2.875 0.875 4.875 2.875 C5.3125 6.3125 5.3125 6.3125 4.875 9.875 C2.75 11.9375 2.75 11.9375 -0.125 12.875 C-3.4375 12.0625 -3.4375 12.0625 -6.125 10.875 C-7.5744382 4.59410112 -7.5744382 4.59410112 -5.5625 1.375 C-3.125 -0.125 -3.125 -0.125 0 0 Z " fill="#69A33E" transform="translate(45.125,163.125)"/>
<path d="M0 0 C3.67107086 4.89476115 5.82185018 9.97569767 8.25 15.5625 C8.72179687 16.61630859 9.19359375 17.67011719 9.6796875 18.75585938 C10.12054688 19.76583984 10.56140625 20.77582031 11.015625 21.81640625 C11.42071289 22.73881104 11.82580078 23.66121582 12.24316406 24.61157227 C13 27 13 27 12 30 C11.67 29.34 11.34 28.68 11 28 C8.97536745 27.34786708 8.97536745 27.34786708 7 27 C7 26.01 7 25.02 7 24 C7.66 24 8.32 24 9 24 C9 23.34 9 22.68 9 22 C8.34 22 7.68 22 7 22 C6.87625 21.360625 6.7525 20.72125 6.625 20.0625 C6.41875 19.381875 6.2125 18.70125 6 18 C5.34 17.67 4.68 17.34 4 17 C4 14.69 4 12.38 4 10 C3.34 10 2.68 10 2 10 C2.02320313 10.85722656 2.04640625 11.71445313 2.0703125 12.59765625 C2.16826645 18.80373869 2.17409407 24.1571222 0 30 C-0.33 30 -0.66 30 -1 30 C-0.67 20.1 -0.34 10.2 0 0 Z " fill="#67A43E" transform="translate(157,107)"/>
<path d="M0 0 C0.66 0.33 1.32 0.66 2 1 C2.24188751 12.58372408 2.05970251 22.98080749 -2 34 C-2.95190012 31.25006631 -2.96516628 29.80647932 -2.4375 26.875 C-2.293125 25.92625 -2.14875 24.9775 -2 24 C-2.66 23.34 -3.32 22.68 -4 22 C-4 21.34 -4 20.68 -4 20 C-3.34 20 -2.68 20 -2 20 C-2 19.01 -2 18.02 -2 17 C-1.34 17 -0.68 17 0 17 C-0.33 15.35 -0.66 13.7 -1 12 C-0.34 12 0.32 12 1 12 C0.835 10.7625 0.67 9.525 0.5 8.25 C0.12290556 5.42179168 0 2.88435938 0 0 Z " fill="#67A43E" transform="translate(149,110)"/>
<path d="M0 0 C2.5625 1.6875 2.5625 1.6875 4.5625 4.6875 C3.675625 4.378125 2.78875 4.06875 1.875 3.75 C-0.90459155 2.8584329 -3.56886375 2.19372993 -6.4375 1.6875 C-6.4375 2.6775 -6.4375 3.6675 -6.4375 4.6875 C-7.4275 4.6875 -8.4175 4.6875 -9.4375 4.6875 C-9.4375 4.0275 -9.4375 3.3675 -9.4375 2.6875 C-11.7390411 1.90947813 -11.7390411 1.90947813 -14.4375 1.6875 C-16.74254044 3.01903266 -16.74254044 3.01903266 -18.4375 4.6875 C-19.0975 4.3575 -19.7575 4.0275 -20.4375 3.6875 C-14.04849222 -1.66545246 -7.90414972 -3.01794808 0 0 Z " fill="#6BA341" transform="translate(235.4375,51.3125)"/>
<path d="M0 0 C0.66 1.32 1.32 2.64 2 4 C1.030625 4.28875 0.06125 4.5775 -0.9375 4.875 C-6.61426545 7.23644136 -10.17536565 12.37748274 -14 17 C-14.66 15.68 -15.32 14.36 -16 13 C-15.195625 12.773125 -14.39125 12.54625 -13.5625 12.3125 C-12.716875 11.879375 -11.87125 11.44625 -11 11 C-10.10613836 8.45224694 -10.10613836 8.45224694 -10 6 C-9.01 6.33 -8.02 6.66 -7 7 C-7.33 5.68 -7.66 4.36 -8 3 C-4.71303767 2.20046862 -3.28976808 1.90341064 0 3 C0 2.01 0 1.02 0 0 Z " fill="#68A141" transform="translate(138,63)"/>
<path d="M0 0 C0.66 0 1.32 0 2 0 C2.5775 0.969375 3.155 1.93875 3.75 2.9375 C5.70530383 6.25379687 5.70530383 6.25379687 9.0625 6.875 C14.04213673 7.08689944 18.34096331 6.40344529 23.2109375 5.4375 C25.86264343 5.02154613 28.32179053 4.92208845 31 5 C27.65133292 6.87852056 24.35733428 7.76369209 20.625 8.625 C19.52414063 8.88539063 18.42328125 9.14578125 17.2890625 9.4140625 C9.44248985 10.81190798 9.44248985 10.81190798 5.91796875 8.828125 C5.06138672 8.04695312 5.06138672 8.04695312 4.1875 7.25 C3.60355469 6.73953125 3.01960938 6.2290625 2.41796875 5.703125 C0.83845554 3.80596864 0.40361651 2.4112155 0 0 Z " fill="#679E3F" transform="translate(40,150)"/>
<path d="M0 0 C1.2375 0.7425 1.2375 0.7425 2.5 1.5 C0.5 2.5 0.5 2.5 -1.125 2.0625 C-7.68704047 0.50833252 -12.70365894 1.3176951 -18.5 4.5 C-20.9087412 6.98903258 -21.89372452 9.10485732 -22.5 12.5 C-23.16 12.5 -23.82 12.5 -24.5 12.5 C-24.08117676 7.75333664 -21.97616552 4.62585426 -18.5 1.5 C-12.21698619 -2.05642291 -6.73008768 -2.88432329 0 0 Z " fill="#6B9D3F" transform="translate(235.5,5.5)"/>
<path d="M0 0 C1.65 0 3.3 0 5 0 C3.48585224 4.54244327 0.12824607 5.86326962 -4 8 C-8.01090394 9.63407198 -11.64537485 11 -16 11 C-15.34 9.68 -14.68 8.36 -14 7 C-13.13375 7.04125 -12.2675 7.0825 -11.375 7.125 C-7.87641532 6.99542279 -5.25448403 6.23980344 -2 5 C-2 4.01 -2 3.02 -2 2 C-1.34 2 -0.68 2 0 2 C0 1.34 0 0.68 0 0 Z " fill="#6BA341" transform="translate(133,155)"/>
<path d="M0 0 C0.66 0 1.32 0 2 0 C2.2475 0.763125 2.495 1.52625 2.75 2.3125 C4.10995558 5.2364045 5.31585826 6.30004356 8 8 C7.34 8.66 6.68 9.32 6 10 C6.37253906 10.81984375 6.74507812 11.6396875 7.12890625 12.484375 C7.83853516 14.10085937 7.83853516 14.10085937 8.5625 15.75 C9.03816406 16.81734375 9.51382813 17.8846875 10.00390625 18.984375 C11.04154874 22.12578677 10.93555906 22.98573677 10 26 C8.32760079 22.04406422 6.66305618 18.0848716 5 14.125 C4.52304688 12.99707031 4.04609375 11.86914062 3.5546875 10.70703125 C2.87792969 9.09248047 2.87792969 9.09248047 2.1875 7.4453125 C1.76855469 6.45031738 1.34960938 5.45532227 0.91796875 4.43017578 C0 2 0 2 0 0 Z " fill="#69A03D" transform="translate(149,171)"/>
<path d="M0 0 C1.984375 0.828125 1.984375 0.828125 3.03125 2.71875 C5.39021916 10.63440206 5.39021916 10.63440206 4.984375 14.828125 C3.31604923 12.32563635 2.36055826 10.41663313 1.359375 7.640625 C1.09898437 6.92519531 0.83859375 6.20976563 0.5703125 5.47265625 C0.37695312 4.92996094 0.18359375 4.38726562 -0.015625 3.828125 C-3.92965449 5.09753997 -5.80635373 6.33980194 -8.015625 9.828125 C-8.675625 9.168125 -9.335625 8.508125 -10.015625 7.828125 C-9.06140692 6.67886234 -8.10210455 5.53381959 -7.140625 4.390625 C-6.60695312 3.75253906 -6.07328125 3.11445312 -5.5234375 2.45703125 C-3.6619085 0.44600121 -2.76499468 -0.23577474 0 0 Z " fill="#669D3D" transform="translate(141.015625,73.171875)"/>
<path d="M0 0 C1.25686099 3.77058297 0.82745636 6.13853697 0 10 C-0.68642578 10.67675781 -0.68642578 10.67675781 -1.38671875 11.3671875 C-3.52920729 13.53561416 -4.38412308 15.82496958 -5.5625 18.625 C-7.78054863 23.89027431 -7.78054863 23.89027431 -10 25 C-7.37589493 16.35588919 -3.68616238 8.23074615 0 0 Z " fill="#69A23E" transform="translate(44,83)"/>
<path d="M0 0 C0 0.66 0 1.32 0 2 C-0.66 2 -1.32 2 -2 2 C-2 2.99 -2 3.98 -2 5 C-5.3 5 -8.6 5 -12 5 C-12 4.01 -12 3.02 -12 2 C-10.7625 1.67 -9.525 1.34 -8.25 1 C-7.55390625 0.814375 -6.8578125 0.62875 -6.140625 0.4375 C-4 0 -4 0 0 0 Z " fill="#6BB53F" transform="translate(80,164)"/>
<path d="M0 0 C0.66 0.33 1.32 0.66 2 1 C0.59067358 6.37305699 0.59067358 6.37305699 -2 9 C-7.06765406 10.93903855 -12.64242492 11.40194511 -18 12 C-17.67 11.34 -17.34 10.68 -17 10 C-13.46441245 9.00533343 -9.90262016 8.19977047 -6.3203125 7.390625 C-2.74800703 6.27218808 -2.74800703 6.27218808 -1.0546875 2.859375 C-0.70664063 1.91578125 -0.35859375 0.9721875 0 0 Z " fill="#689E43" transform="translate(76,86)"/>
<path d="M0 0 C0.99 0.495 0.99 0.495 2 1 C2.33 1.99 2.66 2.98 3 4 C3.66 4.33 4.32 4.66 5 5 C5.33 4.34 5.66 3.68 6 3 C6.66 3 7.32 3 8 3 C8.66 2.01 9.32 1.02 10 0 C10.99 0.99 11.98 1.98 13 3 C11.73760288 3.86658615 10.46472499 4.71792059 9.1875 5.5625 C8.12595703 6.27599609 8.12595703 6.27599609 7.04296875 7.00390625 C5 8 5 8 2 7 C0.8125 3.4375 0.8125 3.4375 0 0 Z " fill="#67A03E" transform="translate(110,78)"/>
<path d="M0 0 C3.64927898 3.64927898 4.91585183 8.42923408 5.1875 13.5 C5.125625 14.325 5.06375 15.15 5 16 C2.01405773 14.50702887 1.37400406 13.06028177 0 10 C-0.25093494 6.65078675 -0.17572616 3.35181381 0 0 Z " fill="#67A23C" transform="translate(187,176)"/>
<path d="M0 0 C2.34211663 2.89399469 3.86862171 5.67155428 5.25 9.125 C5.60578125 9.99382812 5.9615625 10.86265625 6.328125 11.7578125 C7 14 7 14 6 16 C0.8753205 11.00672254 0.15346252 7.05927607 0 0 Z " fill="#68A042" transform="translate(170,137)"/>
<path d="M0 0 C1.29904812 4.1827507 0.45033124 6.87800595 -1 11 C-1.66 11.66 -2.32 12.32 -3 13 C-4.02304948 14.65261839 -5.02616054 16.31791365 -6 18 C-6.33 17.34 -6.66 16.68 -7 16 C-5.92664301 13.23325418 -4.79739939 10.56805742 -3.5625 7.875 C-3.22412109 7.12089844 -2.88574219 6.36679688 -2.53710938 5.58984375 C-1.69839399 3.72340669 -0.85008607 1.8612857 0 0 Z " fill="#69A23F" transform="translate(8,166)"/>
<path d="M0 0 C0.99 0 1.98 0 3 0 C1.63629701 2.99220268 0.05091917 5.29026529 -2.125 7.75 C-2.93324219 8.67039062 -2.93324219 8.67039062 -3.7578125 9.609375 C-4.16773438 10.06828125 -4.57765625 10.5271875 -5 11 C-5.144375 10.38125 -5.28875 9.7625 -5.4375 9.125 C-5.93152225 6.96741678 -5.93152225 6.96741678 -7 5 C-6.401875 4.855625 -5.80375 4.71125 -5.1875 4.5625 C-3.43849596 4.1127561 -1.71322977 3.57107659 0 3 C0 2.01 0 1.02 0 0 Z " fill="#64A03C" transform="translate(42,105)"/>
<path d="M0 0 C1.4540625 0.0309375 1.4540625 0.0309375 2.9375 0.0625 C2.6075 1.3825 2.2775 2.7025 1.9375 4.0625 C-0.3725 4.7225 -2.6825 5.3825 -5.0625 6.0625 C-3.98897059 0.08140756 -3.98897059 0.08140756 0 0 Z " fill="#6AB53E" transform="translate(45.0625,165.9375)"/>
<path d="M0 0 C-3.07693862 1.02564621 -6.14985005 2.04610771 -9.25 3 C-12.09816984 3.8162462 -12.09816984 3.8162462 -14 6 C-15.32 5.34 -16.64 4.68 -18 4 C-16.43979133 3.34865075 -14.87671421 2.70417036 -13.3125 2.0625 C-12.44238281 1.70285156 -11.57226562 1.34320313 -10.67578125 0.97265625 C-6.66718349 -0.48448367 -4.11180723 -1.37060241 0 0 Z " fill="#689E3E" transform="translate(74,102)"/>
<path d="M0 0 C0.66 0.66 1.32 1.32 2 2 C-3.58845066 5.88761785 -8.19084224 7.02375449 -15 6 C-15.99 5.34 -16.98 4.68 -18 4 C-17.20335937 4.04640625 -16.40671875 4.0928125 -15.5859375 4.140625 C-9.02804041 4.36400836 -4.99181542 4.43716926 0 0 Z " fill="#67983E" transform="translate(238,33)"/>
<path d="M0 0 C0.99 1.32 1.98 2.64 3 4 C2.67 4.66 2.34 5.32 2 6 C1.76827173 8.54615009 1.58105471 11.07396225 1.4375 13.625 C1.39431641 14.33140625 1.35113281 15.0378125 1.30664062 15.765625 C1.20055249 17.51018537 1.09977111 19.25506697 1 21 C0.67 21 0.34 21 0 21 C0 14.07 0 7.14 0 0 Z " fill="#6A924F" transform="translate(157,107)"/>
<path d="M0 0 C0.66 0.33 1.32 0.66 2 1 C-0.64 3.97 -3.28 6.94 -6 10 C-6.33 9.01 -6.66 8.02 -7 7 C-6.01 6.67 -5.02 6.34 -4 6 C-3.65657551 4.66923011 -3.32380126 3.33568021 -3 2 C-2.01 1.34 -1.02 0.68 0 0 Z " fill="#65A03A" transform="translate(124,121)"/>
<path d="M0 0 C1.67110042 2.96178773 2.32682752 5.37071192 2.625 8.75 C2.69976562 9.54921875 2.77453125 10.3484375 2.8515625 11.171875 C2.92503906 12.07679687 2.92503906 12.07679687 3 13 C1 12 1 12 -0.0625 9.0625 C-0.371875 8.051875 -0.68125 7.04125 -1 6 C-1.33 5.34 -1.66 4.68 -2 4 C-1.34 4 -0.68 4 0 4 C0 2.68 0 1.36 0 0 Z " fill="#6AA244" transform="translate(146,88)"/>
<path d="M0 0 C0.66 0 1.32 0 2 0 C2.86604534 1.76505435 3.71748642 3.53728074 4.5625 5.3125 C5.27599609 6.79169922 5.27599609 6.79169922 6.00390625 8.30078125 C7 11 7 11 6 14 C3.02931839 9.6147081 1.54058233 5.01508715 0 0 Z " fill="#689E40" transform="translate(121,26)"/>
<path d="M0 0 C0 0.66 0 1.32 0 2 C-0.99 2 -1.98 2 -3 2 C-3.33 2.99 -3.66 3.98 -4 5 C-6.27208411 6.51472274 -8.56019185 7.78009593 -11 9 C-9.23608757 4.5100411 -5.10838455 0 0 0 Z " fill="#6C9D44" transform="translate(88,1)"/>
<path d="M0 0 C0.9075 0.185625 1.815 0.37125 2.75 0.5625 C5.68314324 0.95734621 7.2644657 0.94691572 10 0 C10 0.99 10 1.98 10 3 C6.37 3 2.74 3 -1 3 C-0.67 2.01 -0.34 1.02 0 0 Z " fill="#61AE33" transform="translate(11,203)"/>
<path d="M0 0 C0.66 0.33 1.32 0.66 2 1 C-0.65654657 4.73884332 -2.58110387 6.64978174 -7 8 C-7.33 7.34 -7.66 6.68 -8 6 C-6.35 5.67 -4.7 5.34 -3 5 C-3.33 4.01 -3.66 3.02 -4 2 C-2.68 2 -1.36 2 0 2 C0 1.34 0 0.68 0 0 Z " fill="#6BA044" transform="translate(29,197)"/>
<path d="M0 0 C0.66 0 1.32 0 2 0 C2.433125 1.11375 2.433125 1.11375 2.875 2.25 C3.91204676 4.94322476 3.91204676 4.94322476 5.1875 7.125 C6 9 6 9 5 12 C3.20931427 9.3139714 2.33944209 7.3373411 1.375 4.3125 C1.11460938 3.50425781 0.85421875 2.69601563 0.5859375 1.86328125 C0.39257812 1.24839844 0.19921875 0.63351563 0 0 Z " fill="#68A041" transform="translate(105,66)"/>
<path d="M0 0 C0.66 1.32 1.32 2.64 2 4 C-4.625 5 -4.625 5 -8 5 C-7.67 4.01 -7.34 3.02 -7 2 C-4.69 2.33 -2.38 2.66 0 3 C0 2.01 0 1.02 0 0 Z " fill="#6DA846" transform="translate(138,63)"/>
<path d="M0 0 C0.5534764 2.07553648 1 3.84365964 1 6 C1.66 6 2.32 6 3 6 C2.67 6.66 2.34 7.32 2 8 C0.68 7.67 -0.64 7.34 -2 7 C-2.33 7.99 -2.66 8.98 -3 10 C-3.33 9.34 -3.66 8.68 -4 8 C-3.22265625 6.0546875 -3.22265625 6.0546875 -2.0625 3.875 C-1.49208984 2.78832031 -1.49208984 2.78832031 -0.91015625 1.6796875 C-0.60980469 1.12539062 -0.30945313 0.57109375 0 0 Z " fill="#68A240" transform="translate(153,144)"/>
<path d="M0 0 C2.96052484 3.36423277 3.92289822 6.69159287 5 11 C3.046875 10.2890625 3.046875 10.2890625 1 9 C0.390625 6.8359375 0.390625 6.8359375 0.25 4.375 C0.19328125 3.55773438 0.1365625 2.74046875 0.078125 1.8984375 C0.05234375 1.27195313 0.0265625 0.64546875 0 0 Z " fill="#659F40" transform="translate(128,40)"/>
<path d="M0 0 C4.95 0.99 4.95 0.99 10 2 C10 2.33 10 2.66 10 3 C6.7 3 3.4 3 0 3 C0 2.01 0 1.02 0 0 Z " fill="#69AD38" transform="translate(68,166)"/>
<path d="M0 0 C1.32 0.66 2.64 1.32 4 2 C2.35 3.32 0.7 4.64 -1 6 C-1.66 5.01 -2.32 4.02 -3 3 C-2.01 2.67 -1.02 2.34 0 2 C0 1.34 0 0.68 0 0 Z " fill="#64A33C" transform="translate(104,137)"/>
<path d="M0 0 C0.66 0.99 1.32 1.98 2 3 C0.625 5.5 0.625 5.5 -1 8 C-1.66 8 -2.32 8 -3 8 C-2.45276317 4.62537285 -1.9451 2.91765 0 0 Z " fill="#6AA23F" transform="translate(214,56)"/>
</svg>
